<svg xmlns="http://www.w3.org/2000/svg" width="44" height="44" viewBox="0 0 44 44">
  <g id="Group_280" data-name="Group 280" transform="translate(0 -0.489)">
    <path id="Path_10814" data-name="Path 10814" d="M9.9,1.76a30.363,30.363,0,0,1,3.961.11,5.1,5.1,0,0,1,1.87.33,3.864,3.864,0,0,1,1.87,1.87,5.1,5.1,0,0,1,.33,1.87c0,.99.11,1.32.11,3.961a30.362,30.362,0,0,1-.11,3.961,5.1,5.1,0,0,1-.33,1.87,3.864,3.864,0,0,1-1.87,1.87,5.1,5.1,0,0,1-1.87.33c-.99,0-1.32.11-3.961.11a30.362,30.362,0,0,1-3.961-.11,5.1,5.1,0,0,1-1.87-.33,3.864,3.864,0,0,1-1.87-1.87,5.1,5.1,0,0,1-.33-1.87c0-.99-.11-1.32-.11-3.961a30.364,30.364,0,0,1,.11-3.961,5.1,5.1,0,0,1,.33-1.87,3.952,3.952,0,0,1,.77-1.1,1.86,1.86,0,0,1,1.1-.77,5.1,5.1,0,0,1,1.87-.33A30.364,30.364,0,0,1,9.9,1.76M9.9,0A32.511,32.511,0,0,0,5.832.11,6.793,6.793,0,0,0,3.411.55a4.307,4.307,0,0,0-1.76,1.1,4.307,4.307,0,0,0-1.1,1.76A5.013,5.013,0,0,0,.11,5.832,32.511,32.511,0,0,0,0,9.9a32.511,32.511,0,0,0,.11,4.071,6.793,6.793,0,0,0,.44,2.421,4.307,4.307,0,0,0,1.1,1.76,4.307,4.307,0,0,0,1.76,1.1,6.793,6.793,0,0,0,2.421.44,32.512,32.512,0,0,0,4.071.11,32.512,32.512,0,0,0,4.071-.11,6.793,6.793,0,0,0,2.421-.44,4.616,4.616,0,0,0,2.861-2.861,6.793,6.793,0,0,0,.44-2.421c0-1.1.11-1.43.11-4.071a32.512,32.512,0,0,0-.11-4.071,6.793,6.793,0,0,0-.44-2.421,4.307,4.307,0,0,0-1.1-1.76,4.307,4.307,0,0,0-1.76-1.1A6.793,6.793,0,0,0,13.974.11,32.511,32.511,0,0,0,9.9,0m0,4.841A4.98,4.98,0,0,0,4.841,9.9,5.061,5.061,0,1,0,9.9,4.841m0,8.362A3.242,3.242,0,0,1,6.6,9.9,3.242,3.242,0,0,1,9.9,6.6a3.242,3.242,0,0,1,3.3,3.3,3.242,3.242,0,0,1-3.3,3.3m5.281-9.793a1.21,1.21,0,1,0,1.21,1.21,1.221,1.221,0,0,0-1.21-1.21" transform="translate(12.536 12.482)" fill="#e0b16d" fill-rule="evenodd"/>
    <g id="Ellipse_51" data-name="Ellipse 51" transform="translate(0 0.489)" fill="none" stroke="#e0b16d" stroke-width="1">
      <circle cx="22" cy="22" r="22" stroke="none"/>
      <circle cx="22" cy="22" r="21.5" fill="none"/>
    </g>
  </g>
</svg>
